<?xml version="1.0" encoding="UTF-8"?><svg id="Ebene_2" xmlns="http://www.w3.org/2000/svg" viewBox="0 0 653 120.62"><defs><style>.cls-1{fill:#151a1b;}</style></defs><g id="Ebene_1-2"><g><path class="cls-1" d="M127.93,90.47h21.15l16.65-60.31h-11.5c-5.71,0-10.71,3.81-12.23,9.31l-14.08,51Z"/><path class="cls-1" d="M347,30.16h-54.84l-16.65,60.31h21.59l3.97-14.37h32.07c6.34,0,12.2-.72,17.4-2.13,5.23-1.42,9.61-3.44,13.01-6.01,3.4-2.57,5.6-5.57,6.52-8.92l3.4-12.34,4.57-16.55h-31.05Zm4.75,17.06l-3.12,11.32c-.55,1.98-2.01,3.6-4.36,4.79-2.38,1.21-5.12,1.8-8.39,1.8h-31.77l6.61-23.99h42.7l-1.68,6.08Z"/><path class="cls-1" d="M537.27,67.71c-1.02,3.69-3.45,6.7-7.24,8.94-3.74,2.22-8.01,2.83-12.96,2.83h-13.95c-5.05,0-8.99-.63-11.46-2.87-2.49-2.27-3.24-5.3-2.22-8.99l4.04-14.63,3.27-11.86h31.19c4.86,0,8.71,.49,11.15,2.46,2.46,1.99,3.24,4.66,2.34,7.95l-.11,.39h21.3l.11-.39c1.2-4.35,.69-8.24-1.52-11.54-2.21-3.31-5.95-5.92-11.11-7.76-5.15-1.84-11.71-2.09-19.13-2.09h-52.78l-6.16,22.33-4.32,15.65c-1.25,4.52-.76,8.58,1.45,12.05,2.22,3.48,6.02,6.21,11.31,8.11,5.28,1.9,12,2.18,19.62,2.18h13.95c7.52,0,14.34-.3,20.62-2.22,6.29-1.93,11.59-4.7,15.74-8.24,4.14-3.53,6.89-7.67,8.17-12.3l.11-.39h-21.3l-.11,.39Z"/><path class="cls-1" d="M466.44,90.47h-79.33c-4.36,0-7.77-.77-10.09-2.32-2.34-1.54-3.18-3.58-2.5-6.05l14.34-51.94h78.52l-3.03,10.99h-56.92l-3.59,13h46.27l-3.03,10.98h-46.27l-3.97,14.37h60.82c1.07,6.33,8.78,10.98,8.78,10.98Z"/><path class="cls-1" d="M653,30.16l-3.03,10.99h-31.38l-13.62,49.32h-21.6l13.62-49.32h-24.32c-1.78-6.89-10.17-10.99-10.17-10.99h90.51Z"/><path class="cls-1" d="M220.1,65.12l-23.56-34.97h-19.12l-16.65,60.31h21.15l10.85-39.31,19.09,28.33h5.67c5.56,0,9.51-2.7,11.45-4.27l24.98-22.25-10.4,37.51h21.15l16.65-60.31h-22.01l-39.26,34.97Z"/><path class="cls-1" d="M33.35,120.62H0l34.76-51.6c3.72-5.53,4.85-12.41,3.07-18.83L23.98,0H57.33l16.65,60.31-40.63,60.31Z"/></g></g></svg>